{
  "accessors": [
    {
      "bufferView": 1,
      "componentType": 5126,
      "count": 1920,
      "max": [
        20.0,
        38.48517990112305,
        36.60157775878906
      ],
      "min": [
        -42.27032470703125,
        -38.48517990112305,
        -36.60157775878906
      ],
      "type": "VEC3"
    },
    {
      "bufferView": 1,
      "byteOffset": 23040,
      "componentType": 5126,
      "count": 1920,
      "max": [
        1.0,
        1.0,
        0.9510565996170044
      ],
      "min": [
        -1.0,
        -1.0,
        -0.9510565996170044
      ],
      "type": "VEC3"
    },
    {
      "bufferView": 0,
      "componentType": 5125,
      "count": 4320,
      "type": "SCALAR"
    }
  ],
  "asset": {
    "extras": {
      "author": "amoguus (https://sketchfab.com/amoguus)",
      "license": "CC-BY-4.0 (http://creativecommons.org/licenses/by/4.0/)",
      "source": "https://sketchfab.com/3d-models/dodecahedron-6ad6110496404e2985458fd18cb18fec",
      "title": "dodecahedron"
    },
    "generator": "Sketchfab-12.74.0",
    "version": "2.0"
  },
  "bufferViews": [
    {
      "buffer": 0,
      "byteLength": 17280,
      "name": "floatBufferViews",
      "target": 34963
    },
    {
      "buffer": 0,
      "byteLength": 46080,
      "byteOffset": 17280,
      "byteStride": 12,
      "name": "floatBufferViews",
      "target": 34962
    }
  ],
  "buffers": [
    {
      "byteLength": 63360,
      "uri": "scene.bin"
    }
  ],
  "materials": [
    {
      "doubleSided": true,
      "name": "Scene_-_Root",
      "pbrMetallicRoughness": {
        "baseColorFactor": [
          0.451990477242754,
          0.006905675472181908,
          0.006905675472181908,
          1.0
        ],
        "metallicFactor": 0.6207438701028083,
        "roughnessFactor": 0.256582230889883
      }
    }
  ],
  "meshes": [
    {
      "name": "Object_0",
      "primitives": [
        {
          "attributes": {
            "NORMAL": 1,
            "POSITION": 0
          },
          "indices": 2,
          "material": 0,
          "mode": 4
        }
      ]
    }
  ],
  "nodes": [
    {
      "children": [
        1
      ],
      "matrix": [
        1.0,
        0.0,
        0.0,
        0.0,
        0.0,
        2.220446049250313e-16,
        -1.0,
        0.0,
        0.0,
        1.0,
        2.220446049250313e-16,
        0.0,
        0.0,
        0.0,
        0.0,
        1.0
      ],
      "name": "Sketchfab_model"
    },
    {
      "children": [
        2
      ],
      "name": "2dbb116123d849c39c4537ba4263fc25.stl.cleaner.materialmerger.gles"
    },
    {
      "mesh": 0,
      "name": "Object_2"
    }
  ],
  "scene": 0,
  "scenes": [
    {
      "name": "Sketchfab_Scene",
      "nodes": [
        0
      ]
    }
  ]
}
